<?xml version="1.0" encoding="UTF-8" standalone="no"?>
<!-- Created with Inkscape (http://www.inkscape.org/) -->

<svg
   width="210mm"
   height="297mm"
   viewBox="0 0 210 297"
   version="1.1"
   id="svg5"
   inkscape:version="1.1.2 (0a00cf5339, 2022-02-04)"
   sodipodi:docname="icons.svg"
   xmlns:inkscape="http://www.inkscape.org/namespaces/inkscape"
   xmlns:sodipodi="http://sodipodi.sourceforge.net/DTD/sodipodi-0.dtd"
   xmlns="http://www.w3.org/2000/svg"
   xmlns:svg="http://www.w3.org/2000/svg">
  <sodipodi:namedview
     id="namedview7"
     pagecolor="#ffffff"
     bordercolor="#666666"
     borderopacity="1.0"
     inkscape:pageshadow="2"
     inkscape:pageopacity="0.0"
     inkscape:pagecheckerboard="0"
     inkscape:document-units="mm"
     showgrid="false"
     inkscape:zoom="0.35355339"
     inkscape:cx="-96.166522"
     inkscape:cy="275.77165"
     inkscape:window-width="1850"
     inkscape:window-height="1016"
     inkscape:window-x="0"
     inkscape:window-y="0"
     inkscape:window-maximized="1"
     inkscape:current-layer="layer1" />
  <defs
     id="defs2">
    <clipPath
       clipPathUnits="userSpaceOnUse"
       id="clipPath2350">
      <rect
         style="fill:#5dffff;fill-opacity:1;stroke:none;stroke-width:4.99999;stroke-linecap:round;stroke-linejoin:round;stroke-miterlimit:4;stroke-dasharray:none"
         id="rect2352"
         width="45.776192"
         height="45.776192"
         x="117.31487"
         y="136.82083"
         ry="4.4600282"
         transform="rotate(-45)" />
    </clipPath>
    <clipPath
       clipPathUnits="userSpaceOnUse"
       id="clipPath2350-7">
      <rect
         style="fill:#5dffff;fill-opacity:1;stroke:none;stroke-width:4.99999;stroke-linecap:round;stroke-linejoin:round;stroke-miterlimit:4;stroke-dasharray:none"
         id="rect2352-5"
         width="45.776192"
         height="45.776192"
         x="117.31487"
         y="136.82083"
         ry="4.4600282"
         transform="rotate(-45)" />
    </clipPath>
    <clipPath
       clipPathUnits="userSpaceOnUse"
       id="clipPath2350-5">
      <rect
         style="fill:#5dffff;fill-opacity:1;stroke:none;stroke-width:4.99999;stroke-linecap:round;stroke-linejoin:round;stroke-miterlimit:4;stroke-dasharray:none"
         id="rect2352-6"
         width="45.776192"
         height="45.776192"
         x="117.31487"
         y="136.82083"
         ry="4.4600282"
         transform="rotate(-45)" />
    </clipPath>
    <clipPath
       clipPathUnits="userSpaceOnUse"
       id="clipPath2350-7-2">
      <rect
         style="fill:#5dffff;fill-opacity:1;stroke:none;stroke-width:4.99999;stroke-linecap:round;stroke-linejoin:round;stroke-miterlimit:4;stroke-dasharray:none"
         id="rect2352-5-9"
         width="45.776192"
         height="45.776192"
         x="117.31487"
         y="136.82083"
         ry="4.4600282"
         transform="rotate(-45)" />
    </clipPath>
    <clipPath
       clipPathUnits="userSpaceOnUse"
       id="clipPath2350-0">
      <rect
         style="fill:#5dffff;fill-opacity:1;stroke:none;stroke-width:4.99999;stroke-linecap:round;stroke-linejoin:round;stroke-miterlimit:4;stroke-dasharray:none"
         id="rect2352-9"
         width="45.776192"
         height="45.776192"
         x="117.31487"
         y="136.82083"
         ry="4.4600282"
         transform="rotate(-45)" />
    </clipPath>
    <clipPath
       clipPathUnits="userSpaceOnUse"
       id="clipPath2350-7-3">
      <rect
         style="fill:#5dffff;fill-opacity:1;stroke:none;stroke-width:4.99999;stroke-linecap:round;stroke-linejoin:round;stroke-miterlimit:4;stroke-dasharray:none"
         id="rect2352-5-6"
         width="45.776192"
         height="45.776192"
         x="117.31487"
         y="136.82083"
         ry="4.4600282"
         transform="rotate(-45)" />
    </clipPath>
    <clipPath
       clipPathUnits="userSpaceOnUse"
       id="clipPath2350-5-0">
      <rect
         style="fill:#5dffff;fill-opacity:1;stroke:none;stroke-width:4.99999;stroke-linecap:round;stroke-linejoin:round;stroke-miterlimit:4;stroke-dasharray:none"
         id="rect2352-6-6"
         width="45.776192"
         height="45.776192"
         x="117.31487"
         y="136.82083"
         ry="4.4600282"
         transform="rotate(-45)" />
    </clipPath>
    <clipPath
       clipPathUnits="userSpaceOnUse"
       id="clipPath2350-7-2-2">
      <rect
         style="fill:#5dffff;fill-opacity:1;stroke:none;stroke-width:4.99999;stroke-linecap:round;stroke-linejoin:round;stroke-miterlimit:4;stroke-dasharray:none"
         id="rect2352-5-9-6"
         width="45.776192"
         height="45.776192"
         x="117.31487"
         y="136.82083"
         ry="4.4600282"
         transform="rotate(-45)" />
    </clipPath>
    <clipPath
       clipPathUnits="userSpaceOnUse"
       id="clipPath2350-0-2">
      <rect
         style="fill:#5dffff;fill-opacity:1;stroke:none;stroke-width:4.99999;stroke-linecap:round;stroke-linejoin:round;stroke-miterlimit:4;stroke-dasharray:none"
         id="rect2352-9-3"
         width="45.776192"
         height="45.776192"
         x="117.31487"
         y="136.82083"
         ry="4.4600282"
         transform="rotate(-45)" />
    </clipPath>
    <clipPath
       clipPathUnits="userSpaceOnUse"
       id="clipPath2350-7-3-7">
      <rect
         style="fill:#5dffff;fill-opacity:1;stroke:none;stroke-width:4.99999;stroke-linecap:round;stroke-linejoin:round;stroke-miterlimit:4;stroke-dasharray:none"
         id="rect2352-5-6-5"
         width="45.776192"
         height="45.776192"
         x="117.31487"
         y="136.82083"
         ry="4.4600282"
         transform="rotate(-45)" />
    </clipPath>
    <clipPath
       clipPathUnits="userSpaceOnUse"
       id="clipPath2350-5-0-9">
      <rect
         style="fill:#5dffff;fill-opacity:1;stroke:none;stroke-width:4.99999;stroke-linecap:round;stroke-linejoin:round;stroke-miterlimit:4;stroke-dasharray:none"
         id="rect2352-6-6-2"
         width="45.776192"
         height="45.776192"
         x="117.31487"
         y="136.82083"
         ry="4.4600282"
         transform="rotate(-45)" />
    </clipPath>
    <clipPath
       clipPathUnits="userSpaceOnUse"
       id="clipPath2350-7-2-2-2">
      <rect
         style="fill:#5dffff;fill-opacity:1;stroke:none;stroke-width:4.99999;stroke-linecap:round;stroke-linejoin:round;stroke-miterlimit:4;stroke-dasharray:none"
         id="rect2352-5-9-6-8"
         width="45.776192"
         height="45.776192"
         x="117.31487"
         y="136.82083"
         ry="4.4600282"
         transform="rotate(-45)" />
    </clipPath>
  </defs>
  <g
     inkscape:label="Layer 1"
     inkscape:groupmode="layer"
     id="layer1">
    <path
       id="rect1307"
       style="color:#000000;fill:#d8cb5a;stroke-width:1;stroke-linecap:round;stroke-linejoin:round;-inkscape-stroke:none"
       d="m 43.773278,116.92823 c 4.74469,-4.74487 12.54338,-4.74479 17.28816,0 l 30.81153,30.81153 h 0.0416 l -0.0219,-0.0219 c -1.47342,-1.47343 2.48813,3.24157 3.04641,5.12118 0.004,0.0122 0.008,0.0236 0.0113,0.0354 1.28985,4.17693 0.38612,8.9009 -2.93861,12.00583 -0.0404,0.0415 -0.0778,0.0849 -0.11887,0.12594 l -26.68793,26.68793 c -4.74478,4.74478 -12.54335,4.74477 -17.28816,-1e-5 l -10.22401,-10.22406 c -4.74477,-4.7448 -4.98835,-12.80011 0,-17.28817 l 8.28124,-8.28123 -0.0161,-0.0161 0.4173,-0.41729 c 2.37243,-2.37235 5.50785,-3.5587 8.64372,-3.55871 3.13585,0 6.27205,1.18632 8.64444,3.55871 l 3.34567,3.34567 v 10.1481 l -8.41972,-8.41972 c -1.90357,-1.90359 -4.76093,-2.01377 -6.77575,-0.33216 l -9.04677,9.04677 c -2.02142,2.02142 -2.02141,5.11862 0,7.14005 l 10.22411,10.22411 c 2.02142,2.02142 4.66928,1.43787 7.14006,-1e-5 l 1.41595,-1.41595 h -0.0127 l 25.25768,-25.2577 c 2.02142,-2.02144 2.02141,-5.11866 1e-5,-7.14006 l -30.80391,-30.8039 c -2.02143,-2.02143 -5.11864,-2.02143 -7.14006,0 l -26.687539,26.68829 c -2.021413,2.02142 -2.021802,5.11826 -3.67e-4,7.13969 l 8.420096,8.42008 H 20.432055 l -3.345683,-3.34566 c -2.372392,-2.3724 -3.559059,-5.50897 -3.559059,-8.64482 -7e-6,-3.13587 1.186709,-6.27091 3.559066,-8.64334 z"
       sodipodi:nodetypes="csccscccsscsccccssccccccsscccscccsccsscc"
       inkscape:export-filename="/home/ns/Desktop/GIT/NabotX/nabotx/res/attach.png"
       inkscape:export-xdpi="17.58107"
       inkscape:export-ydpi="17.58107" />
    <g
       id="g2065"
       transform="translate(176.7374,-82.962131)"
       inkscape:export-filename="/home/ns/Desktop/GIT/NabotX/nabotx/assets/plus.png"
       inkscape:export-xdpi="24.994139"
       inkscape:export-ydpi="24.994139">
      <path
         id="rect1307-3"
         style="color:#000000;fill:#d8cb5a;stroke-width:1;stroke-linecap:round;stroke-linejoin:round;-inkscape-stroke:none"
         d="m -51.868164,147.00444 v 0.0227 h -11.711432 c -6.700835,-0.35376 -12.224554,5.51443 -12.224576,12.22458 v 14.45906 c 1.6e-5,4.91526 2.959032,9.18836 7.179406,11.12284 v -10.98125 c -0.0013,-0.0471 -0.0036,-0.0937 -0.0036,-0.14159 v -14.45906 c 1.3e-5,-2.85872 2.190067,-5.04879 5.048787,-5.04879 h 12.794051 c 0.0014,1.2e-4 0.0027,3.9e-4 0.0041,5.1e-4 h 10.631908 c -0.614638,-1.34698 -1.4643,-2.56759 -2.500106,-3.60339 -2.217405,-2.21739 -5.273347,-3.5956 -8.628415,-3.59565 z" />
      <path
         id="rect1307-3-5"
         style="color:#000000;fill:#d8cb5a;stroke-width:1;stroke-linecap:round;stroke-linejoin:round;-inkscape-stroke:none"
         d="m -93.398455,154.57482 v -0.0227 h 11.71143 c 6.70083,0.35376 12.22455,-5.51443 12.22457,-12.22457 v -14.45907 c -10e-6,-4.91526 -2.95903,-9.18836 -7.1794,-11.12283 v 10.98124 c 0.001,0.0471 0.004,0.0937 0.004,0.14159 v 14.45907 c -1e-5,2.85872 -2.19006,5.04878 -5.04878,5.04878 h -12.79405 c -0.001,-1.2e-4 -0.003,-2.6e-4 -0.004,-5.2e-4 H -105.1166 c 0.61464,1.34698 1.4643,2.56759 2.5001,3.60339 2.21741,2.21739 5.273355,3.5956 8.628425,3.59565 z" />
    </g>
    <g
       id="rect1307-3-6"
       transform="rotate(45)" />
    <g
       id="g853"
       transform="translate(42.567998,3.4106199)"
       inkscape:export-filename="/home/ns/Desktop/GIT/NabotX/nabotx/res/send.png"
       inkscape:export-xdpi="17.58107"
       inkscape:export-ydpi="17.58107">
      <path
         id="rect1307-7"
         style="color:#000000;fill:#d8cb5a;stroke-width:1;stroke-linecap:round;stroke-linejoin:round;-inkscape-stroke:none"
         d="m 88.151407,109.36103 c -3.135855,0 -6.272035,1.18604 -8.644432,3.55844 l -7.087423,7.08742 c -0.541361,1.41475 -0.814938,2.91203 -0.814938,4.41006 0,3.13585 1.18604,6.27204 3.55844,8.64444 l 7.087422,7.08742 h 0.271818 l 4.938199,-4.9382 -7.223332,-7.22333 c -1.16959,-1.16959 -1.661279,-2.69922 -1.477428,-4.17236 l 5.82135,-5.82134 c 2.021427,-2.02143 5.118708,-2.02142 7.140133,0 l 43.091944,26.68777 c 1.04256,1.04256 1.6512,2.50779 1.6676,3.88969 -0.0164,1.38189 -0.62504,2.84712 -1.6676,3.88968 L 91.721216,179.1485 c -2.021425,2.02142 -5.118706,2.02143 -7.140133,0 l -5.82135,-5.82135 c -0.183851,-1.47314 0.307838,-3.00277 1.477428,-4.17236 l 7.223332,-7.22333 -4.938199,-4.9382 h -0.271818 l -7.087422,7.08742 c -2.3724,2.3724 -3.55844,5.5086 -3.55844,8.64444 0,1.49804 0.273577,2.99532 0.814938,4.41006 l 7.087423,7.08743 c 2.372397,2.3724 5.508577,3.55844 8.644432,3.55844 3.135858,0 6.271525,-1.18604 8.643916,-3.55844 l 43.091947,-26.68778 c 2.94098,-1.82142 4.35315,-5.41978 4.26175,-8.96379 0.0914,-3.54402 -1.32077,-7.14238 -4.26175,-8.9638 L 96.795323,112.91947 c -2.372391,-2.3724 -5.508058,-3.55844 -8.643916,-3.55844 z" />
    </g>
  </g>
</svg>
